<mxfile host="Electron" modified="2023-11-27T20:10:30.583Z" agent="Mozilla/5.0 (Windows NT 10.0; Win64; x64) AppleWebKit/537.36 (KHTML, like Gecko) draw.io/22.1.2 Chrome/114.0.5735.289 Electron/25.9.4 Safari/537.36" etag="oSBGwVTxl7NdJ34Dsarg" version="22.1.2" type="device" pages="3">
  <diagram name="Сторінка-1" id="NGY80n1NzXH1ALA61tkK">
    <mxGraphModel dx="1036" dy="614" grid="1" gridSize="10" guides="1" tooltips="1" connect="1" arrows="1" fold="1" page="1" pageScale="1" pageWidth="827" pageHeight="1169" math="0" shadow="0">
      <root>
        <mxCell id="0" />
        <mxCell id="1" parent="0" />
        <mxCell id="mVzO54f1UegZ1Pc-6k8d-2" value="start" style="ellipse;whiteSpace=wrap;html=1;" parent="1" vertex="1">
          <mxGeometry x="340" y="30" width="70" height="40" as="geometry" />
        </mxCell>
        <mxCell id="mVzO54f1UegZ1Pc-6k8d-4" value="" style="endArrow=classic;html=1;rounded=0;" parent="1" edge="1">
          <mxGeometry width="50" height="50" relative="1" as="geometry">
            <mxPoint x="374.5" y="70" as="sourcePoint" />
            <mxPoint x="374.5" y="110" as="targetPoint" />
          </mxGeometry>
        </mxCell>
        <mxCell id="mVzO54f1UegZ1Pc-6k8d-5" value="I:=1" style="rounded=0;whiteSpace=wrap;html=1;" parent="1" vertex="1">
          <mxGeometry x="330" y="110" width="90" height="30" as="geometry" />
        </mxCell>
        <mxCell id="mVzO54f1UegZ1Pc-6k8d-6" value="" style="endArrow=classic;html=1;rounded=0;" parent="1" edge="1">
          <mxGeometry width="50" height="50" relative="1" as="geometry">
            <mxPoint x="374.5" y="140" as="sourcePoint" />
            <mxPoint x="374.5" y="180" as="targetPoint" />
          </mxGeometry>
        </mxCell>
        <mxCell id="mVzO54f1UegZ1Pc-6k8d-7" value="J:=1" style="rounded=0;whiteSpace=wrap;html=1;" parent="1" vertex="1">
          <mxGeometry x="331.25" y="180" width="87.5" height="30" as="geometry" />
        </mxCell>
        <mxCell id="mVzO54f1UegZ1Pc-6k8d-8" value="" style="endArrow=classic;html=1;rounded=0;" parent="1" edge="1">
          <mxGeometry width="50" height="50" relative="1" as="geometry">
            <mxPoint x="370" y="210" as="sourcePoint" />
            <mxPoint x="370.5" y="250" as="targetPoint" />
          </mxGeometry>
        </mxCell>
        <mxCell id="mVzO54f1UegZ1Pc-6k8d-9" value="Zadaj a&lt;font size=&quot;1&quot;&gt;&lt;sub&gt;ij&lt;/sub&gt;&lt;/font&gt;" style="shape=parallelogram;perimeter=parallelogramPerimeter;whiteSpace=wrap;html=1;fixedSize=1;" parent="1" vertex="1">
          <mxGeometry x="322.5" y="250" width="105" height="30" as="geometry" />
        </mxCell>
        <mxCell id="mVzO54f1UegZ1Pc-6k8d-10" value="" style="endArrow=classic;html=1;rounded=0;" parent="1" target="mVzO54f1UegZ1Pc-6k8d-11" edge="1">
          <mxGeometry width="50" height="50" relative="1" as="geometry">
            <mxPoint x="374.5" y="280" as="sourcePoint" />
            <mxPoint x="375" y="310" as="targetPoint" />
          </mxGeometry>
        </mxCell>
        <mxCell id="mVzO54f1UegZ1Pc-6k8d-11" value="J&amp;lt;3" style="rhombus;whiteSpace=wrap;html=1;" parent="1" vertex="1">
          <mxGeometry x="342.5" y="310" width="65" height="60" as="geometry" />
        </mxCell>
        <mxCell id="mVzO54f1UegZ1Pc-6k8d-12" value="" style="endArrow=classic;html=1;rounded=0;" parent="1" target="mVzO54f1UegZ1Pc-6k8d-13" edge="1">
          <mxGeometry width="50" height="50" relative="1" as="geometry">
            <mxPoint x="374.5" y="370" as="sourcePoint" />
            <mxPoint x="374.5" y="410" as="targetPoint" />
          </mxGeometry>
        </mxCell>
        <mxCell id="mVzO54f1UegZ1Pc-6k8d-13" value="I&amp;lt;3" style="rhombus;whiteSpace=wrap;html=1;" parent="1" vertex="1">
          <mxGeometry x="342.5" y="390" width="65" height="60" as="geometry" />
        </mxCell>
        <mxCell id="mVzO54f1UegZ1Pc-6k8d-14" value="" style="endArrow=classic;html=1;rounded=0;" parent="1" target="mVzO54f1UegZ1Pc-6k8d-15" edge="1">
          <mxGeometry width="50" height="50" relative="1" as="geometry">
            <mxPoint x="342.5" y="339.5" as="sourcePoint" />
            <mxPoint x="262.5" y="339.5" as="targetPoint" />
          </mxGeometry>
        </mxCell>
        <mxCell id="mVzO54f1UegZ1Pc-6k8d-15" value="J:=J+1" style="rounded=0;whiteSpace=wrap;html=1;" parent="1" vertex="1">
          <mxGeometry x="200" y="320" width="70" height="40" as="geometry" />
        </mxCell>
        <mxCell id="mVzO54f1UegZ1Pc-6k8d-16" value="" style="endArrow=classic;html=1;rounded=0;" parent="1" edge="1">
          <mxGeometry width="50" height="50" relative="1" as="geometry">
            <mxPoint x="240" y="320" as="sourcePoint" />
            <mxPoint x="370" y="220" as="targetPoint" />
            <Array as="points">
              <mxPoint x="240" y="220" />
            </Array>
          </mxGeometry>
        </mxCell>
        <mxCell id="mVzO54f1UegZ1Pc-6k8d-17" value="" style="endArrow=classic;html=1;rounded=0;entryX=1;entryY=0.5;entryDx=0;entryDy=0;" parent="1" target="mVzO54f1UegZ1Pc-6k8d-18" edge="1">
          <mxGeometry width="50" height="50" relative="1" as="geometry">
            <mxPoint x="342.5" y="419.58" as="sourcePoint" />
            <mxPoint x="242.5" y="419.58" as="targetPoint" />
          </mxGeometry>
        </mxCell>
        <mxCell id="mVzO54f1UegZ1Pc-6k8d-18" value="I:=I+1" style="rounded=0;whiteSpace=wrap;html=1;" parent="1" vertex="1">
          <mxGeometry x="130" y="401.25" width="110" height="37.5" as="geometry" />
        </mxCell>
        <mxCell id="mVzO54f1UegZ1Pc-6k8d-20" value="" style="endArrow=classic;html=1;rounded=0;" parent="1" edge="1">
          <mxGeometry width="50" height="50" relative="1" as="geometry">
            <mxPoint x="190" y="401.25" as="sourcePoint" />
            <mxPoint x="375.34" y="160" as="targetPoint" />
            <Array as="points">
              <mxPoint x="190.34" y="160" />
            </Array>
          </mxGeometry>
        </mxCell>
        <mxCell id="mVzO54f1UegZ1Pc-6k8d-21" value="" style="endArrow=classic;html=1;rounded=0;" parent="1" target="mVzO54f1UegZ1Pc-6k8d-22" edge="1">
          <mxGeometry width="50" height="50" relative="1" as="geometry">
            <mxPoint x="374.58" y="450" as="sourcePoint" />
            <mxPoint x="374.58" y="490" as="targetPoint" />
          </mxGeometry>
        </mxCell>
        <mxCell id="mVzO54f1UegZ1Pc-6k8d-22" value="S:=0" style="rounded=0;whiteSpace=wrap;html=1;" parent="1" vertex="1">
          <mxGeometry x="327.28999999999996" y="470" width="95.42" height="30" as="geometry" />
        </mxCell>
        <mxCell id="mVzO54f1UegZ1Pc-6k8d-23" value="" style="endArrow=classic;html=1;rounded=0;" parent="1" target="mVzO54f1UegZ1Pc-6k8d-24" edge="1">
          <mxGeometry width="50" height="50" relative="1" as="geometry">
            <mxPoint x="374.58" y="500" as="sourcePoint" />
            <mxPoint x="374.58" y="540" as="targetPoint" />
          </mxGeometry>
        </mxCell>
        <mxCell id="mVzO54f1UegZ1Pc-6k8d-24" value="I:=1" style="rounded=0;whiteSpace=wrap;html=1;" parent="1" vertex="1">
          <mxGeometry x="322.5" y="530" width="105" height="35" as="geometry" />
        </mxCell>
        <mxCell id="mVzO54f1UegZ1Pc-6k8d-27" value="" style="endArrow=classic;html=1;rounded=0;" parent="1" edge="1">
          <mxGeometry width="50" height="50" relative="1" as="geometry">
            <mxPoint x="370" y="565" as="sourcePoint" />
            <mxPoint x="370.28000000000003" y="600" as="targetPoint" />
          </mxGeometry>
        </mxCell>
        <mxCell id="mVzO54f1UegZ1Pc-6k8d-28" value="J:=1" style="rounded=0;whiteSpace=wrap;html=1;" parent="1" vertex="1">
          <mxGeometry x="322.5" y="600" width="105" height="35" as="geometry" />
        </mxCell>
        <mxCell id="mVzO54f1UegZ1Pc-6k8d-29" value="+" style="text;html=1;strokeColor=none;fillColor=none;align=center;verticalAlign=middle;whiteSpace=wrap;rounded=0;" parent="1" vertex="1">
          <mxGeometry x="300" y="310" width="60" height="30" as="geometry" />
        </mxCell>
        <mxCell id="mVzO54f1UegZ1Pc-6k8d-30" value="+" style="text;html=1;strokeColor=none;fillColor=none;align=center;verticalAlign=middle;whiteSpace=wrap;rounded=0;" parent="1" vertex="1">
          <mxGeometry x="300" y="390" width="60" height="30" as="geometry" />
        </mxCell>
        <mxCell id="mVzO54f1UegZ1Pc-6k8d-31" value="-" style="text;html=1;strokeColor=none;fillColor=none;align=center;verticalAlign=middle;whiteSpace=wrap;rounded=0;" parent="1" vertex="1">
          <mxGeometry x="370" y="350" width="60" height="30" as="geometry" />
        </mxCell>
        <mxCell id="mVzO54f1UegZ1Pc-6k8d-32" value="-" style="text;html=1;strokeColor=none;fillColor=none;align=center;verticalAlign=middle;whiteSpace=wrap;rounded=0;" parent="1" vertex="1">
          <mxGeometry x="370" y="430" width="60" height="30" as="geometry" />
        </mxCell>
        <mxCell id="mVzO54f1UegZ1Pc-6k8d-33" value="" style="endArrow=classic;html=1;rounded=0;" parent="1" edge="1">
          <mxGeometry width="50" height="50" relative="1" as="geometry">
            <mxPoint x="370" y="635" as="sourcePoint" />
            <mxPoint x="370.22715072854163" y="670.1542794171667" as="targetPoint" />
          </mxGeometry>
        </mxCell>
        <mxCell id="mVzO54f1UegZ1Pc-6k8d-34" value="I=J" style="rhombus;whiteSpace=wrap;html=1;" parent="1" vertex="1">
          <mxGeometry x="332.5" y="670" width="75" height="60" as="geometry" />
        </mxCell>
        <mxCell id="mVzO54f1UegZ1Pc-6k8d-35" value="" style="endArrow=classic;html=1;rounded=0;entryX=0;entryY=0.5;entryDx=0;entryDy=0;exitX=0.386;exitY=1;exitDx=0;exitDy=0;exitPerimeter=0;" parent="1" source="mVzO54f1UegZ1Pc-6k8d-73" target="mVzO54f1UegZ1Pc-6k8d-36" edge="1">
          <mxGeometry width="50" height="50" relative="1" as="geometry">
            <mxPoint x="412.5" y="699.58" as="sourcePoint" />
            <mxPoint x="482.5" y="699.58" as="targetPoint" />
          </mxGeometry>
        </mxCell>
        <mxCell id="mVzO54f1UegZ1Pc-6k8d-36" value="a&lt;sub&gt;ij&lt;/sub&gt; = 0" style="rounded=0;whiteSpace=wrap;html=1;" parent="1" vertex="1">
          <mxGeometry x="490" y="680" width="100" height="40" as="geometry" />
        </mxCell>
        <mxCell id="mVzO54f1UegZ1Pc-6k8d-37" value="" style="endArrow=classic;html=1;rounded=0;" parent="1" edge="1">
          <mxGeometry width="50" height="50" relative="1" as="geometry">
            <mxPoint x="370" y="730" as="sourcePoint" />
            <mxPoint x="370.211169451074" y="760.1670644391409" as="targetPoint" />
          </mxGeometry>
        </mxCell>
        <mxCell id="mVzO54f1UegZ1Pc-6k8d-38" value="a&lt;sub&gt;ij&lt;/sub&gt; = 0" style="rhombus;whiteSpace=wrap;html=1;" parent="1" vertex="1">
          <mxGeometry x="332.5" y="760" width="75" height="60" as="geometry" />
        </mxCell>
        <mxCell id="mVzO54f1UegZ1Pc-6k8d-39" value="" style="endArrow=classic;html=1;rounded=0;exitX=0.25;exitY=1;exitDx=0;exitDy=0;" parent="1" source="mVzO54f1UegZ1Pc-6k8d-74" edge="1">
          <mxGeometry width="50" height="50" relative="1" as="geometry">
            <mxPoint x="412.5" y="789.58" as="sourcePoint" />
            <mxPoint x="490" y="790" as="targetPoint" />
          </mxGeometry>
        </mxCell>
        <mxCell id="mVzO54f1UegZ1Pc-6k8d-40" value="S:=S+1" style="rounded=0;whiteSpace=wrap;html=1;" parent="1" vertex="1">
          <mxGeometry x="490" y="770" width="90" height="40" as="geometry" />
        </mxCell>
        <mxCell id="mVzO54f1UegZ1Pc-6k8d-41" value="" style="endArrow=classic;html=1;rounded=0;entryX=0.053;entryY=1.033;entryDx=0;entryDy=0;entryPerimeter=0;" parent="1" target="mVzO54f1UegZ1Pc-6k8d-75" edge="1">
          <mxGeometry width="50" height="50" relative="1" as="geometry">
            <mxPoint x="539.58" y="720" as="sourcePoint" />
            <mxPoint x="380" y="740" as="targetPoint" />
            <Array as="points">
              <mxPoint x="540" y="740" />
            </Array>
          </mxGeometry>
        </mxCell>
        <mxCell id="mVzO54f1UegZ1Pc-6k8d-42" value="" style="endArrow=classic;html=1;rounded=0;" parent="1" edge="1">
          <mxGeometry width="50" height="50" relative="1" as="geometry">
            <mxPoint x="370" y="820" as="sourcePoint" />
            <mxPoint x="370.2129263654844" y="870.1003212904071" as="targetPoint" />
          </mxGeometry>
        </mxCell>
        <mxCell id="mVzO54f1UegZ1Pc-6k8d-43" value="J&amp;lt;3" style="rhombus;whiteSpace=wrap;html=1;" parent="1" vertex="1">
          <mxGeometry x="333.5" y="870" width="73" height="60" as="geometry" />
        </mxCell>
        <mxCell id="mVzO54f1UegZ1Pc-6k8d-44" value="" style="endArrow=classic;html=1;rounded=0;entryX=0;entryY=1;entryDx=0;entryDy=0;" parent="1" target="mVzO54f1UegZ1Pc-6k8d-76" edge="1">
          <mxGeometry width="50" height="50" relative="1" as="geometry">
            <mxPoint x="534.66" y="810" as="sourcePoint" />
            <mxPoint x="380" y="850" as="targetPoint" />
            <Array as="points">
              <mxPoint x="535" y="850" />
            </Array>
          </mxGeometry>
        </mxCell>
        <mxCell id="mVzO54f1UegZ1Pc-6k8d-45" value="" style="endArrow=classic;html=1;rounded=0;" parent="1" edge="1">
          <mxGeometry width="50" height="50" relative="1" as="geometry">
            <mxPoint x="369.99999999999994" y="930" as="sourcePoint" />
            <mxPoint x="370.17067729083664" y="960.1195219123506" as="targetPoint" />
          </mxGeometry>
        </mxCell>
        <mxCell id="mVzO54f1UegZ1Pc-6k8d-46" value="I&amp;lt;3" style="rhombus;whiteSpace=wrap;html=1;" parent="1" vertex="1">
          <mxGeometry x="326.25" y="960" width="87.5" height="60" as="geometry" />
        </mxCell>
        <mxCell id="mVzO54f1UegZ1Pc-6k8d-47" value="" style="endArrow=classic;html=1;rounded=0;" parent="1" edge="1">
          <mxGeometry width="50" height="50" relative="1" as="geometry">
            <mxPoint x="369.99999999999994" y="1020" as="sourcePoint" />
            <mxPoint x="370.2472727272728" y="1060" as="targetPoint" />
          </mxGeometry>
        </mxCell>
        <mxCell id="mVzO54f1UegZ1Pc-6k8d-48" value="I:=1" style="rounded=0;whiteSpace=wrap;html=1;" parent="1" vertex="1">
          <mxGeometry x="327.5" y="1060" width="95" height="30" as="geometry" />
        </mxCell>
        <mxCell id="mVzO54f1UegZ1Pc-6k8d-49" value="" style="endArrow=classic;html=1;rounded=0;" parent="1" edge="1">
          <mxGeometry width="50" height="50" relative="1" as="geometry">
            <mxPoint x="369.99999999999994" y="1090" as="sourcePoint" />
            <mxPoint x="370.2472727272728" y="1130" as="targetPoint" />
          </mxGeometry>
        </mxCell>
        <mxCell id="mVzO54f1UegZ1Pc-6k8d-50" value="J:=1" style="rounded=0;whiteSpace=wrap;html=1;" parent="1" vertex="1">
          <mxGeometry x="327.5" y="1130" width="95" height="30" as="geometry" />
        </mxCell>
        <mxCell id="mVzO54f1UegZ1Pc-6k8d-51" value="" style="endArrow=classic;html=1;rounded=0;" parent="1" edge="1">
          <mxGeometry width="50" height="50" relative="1" as="geometry">
            <mxPoint x="369.99999999999994" y="1160" as="sourcePoint" />
            <mxPoint x="370.2040000000001" y="1190" as="targetPoint" />
          </mxGeometry>
        </mxCell>
        <mxCell id="mVzO54f1UegZ1Pc-6k8d-52" value="Vypiš&lt;em&gt; &lt;/em&gt;a&lt;sub&gt;ij&lt;/sub&gt;" style="shape=parallelogram;perimeter=parallelogramPerimeter;whiteSpace=wrap;html=1;fixedSize=1;" parent="1" vertex="1">
          <mxGeometry x="317.5" y="1190" width="115" height="40" as="geometry" />
        </mxCell>
        <mxCell id="mVzO54f1UegZ1Pc-6k8d-53" value="" style="endArrow=classic;html=1;rounded=0;" parent="1" target="mVzO54f1UegZ1Pc-6k8d-54" edge="1">
          <mxGeometry width="50" height="50" relative="1" as="geometry">
            <mxPoint x="374.65999999999997" y="1230" as="sourcePoint" />
            <mxPoint x="374.65999999999997" y="1280" as="targetPoint" />
          </mxGeometry>
        </mxCell>
        <mxCell id="mVzO54f1UegZ1Pc-6k8d-54" value="J&amp;lt;3" style="rhombus;whiteSpace=wrap;html=1;" parent="1" vertex="1">
          <mxGeometry x="339.5" y="1270" width="73" height="70" as="geometry" />
        </mxCell>
        <mxCell id="mVzO54f1UegZ1Pc-6k8d-55" value="" style="endArrow=classic;html=1;rounded=0;" parent="1" target="mVzO54f1UegZ1Pc-6k8d-56" edge="1">
          <mxGeometry width="50" height="50" relative="1" as="geometry">
            <mxPoint x="375.65999999999997" y="1340" as="sourcePoint" />
            <mxPoint x="375.65999999999997" y="1390" as="targetPoint" />
          </mxGeometry>
        </mxCell>
        <mxCell id="mVzO54f1UegZ1Pc-6k8d-56" value="I&amp;lt;3" style="rhombus;whiteSpace=wrap;html=1;" parent="1" vertex="1">
          <mxGeometry x="336" y="1380" width="80" height="60" as="geometry" />
        </mxCell>
        <mxCell id="mVzO54f1UegZ1Pc-6k8d-57" value="" style="endArrow=classic;html=1;rounded=0;" parent="1" target="mVzO54f1UegZ1Pc-6k8d-58" edge="1">
          <mxGeometry width="50" height="50" relative="1" as="geometry">
            <mxPoint x="375.65999999999997" y="1440" as="sourcePoint" />
            <mxPoint x="375.65999999999997" y="1490" as="targetPoint" />
          </mxGeometry>
        </mxCell>
        <mxCell id="mVzO54f1UegZ1Pc-6k8d-58" value="Vypiš&lt;em&gt; &lt;/em&gt;S" style="shape=parallelogram;perimeter=parallelogramPerimeter;whiteSpace=wrap;html=1;fixedSize=1;" parent="1" vertex="1">
          <mxGeometry x="316" y="1470" width="120" height="40" as="geometry" />
        </mxCell>
        <mxCell id="mVzO54f1UegZ1Pc-6k8d-59" value="" style="endArrow=classic;html=1;rounded=0;" parent="1" target="mVzO54f1UegZ1Pc-6k8d-60" edge="1">
          <mxGeometry width="50" height="50" relative="1" as="geometry">
            <mxPoint x="374.65999999999997" y="1510" as="sourcePoint" />
            <mxPoint x="374.65999999999997" y="1560" as="targetPoint" />
          </mxGeometry>
        </mxCell>
        <mxCell id="mVzO54f1UegZ1Pc-6k8d-60" value="Stop" style="ellipse;whiteSpace=wrap;html=1;" parent="1" vertex="1">
          <mxGeometry x="327.5" y="1540" width="95" height="40" as="geometry" />
        </mxCell>
        <mxCell id="mVzO54f1UegZ1Pc-6k8d-61" value="" style="endArrow=classic;html=1;rounded=0;exitX=0;exitY=0.5;exitDx=0;exitDy=0;" parent="1" source="mVzO54f1UegZ1Pc-6k8d-43" target="mVzO54f1UegZ1Pc-6k8d-62" edge="1">
          <mxGeometry width="50" height="50" relative="1" as="geometry">
            <mxPoint x="337" y="899.66" as="sourcePoint" />
            <mxPoint x="277" y="899.66" as="targetPoint" />
          </mxGeometry>
        </mxCell>
        <mxCell id="mVzO54f1UegZ1Pc-6k8d-62" value="J:=J+1" style="rounded=0;whiteSpace=wrap;html=1;" parent="1" vertex="1">
          <mxGeometry x="210" y="880" width="85" height="40" as="geometry" />
        </mxCell>
        <mxCell id="mVzO54f1UegZ1Pc-6k8d-63" value="" style="endArrow=classic;html=1;rounded=0;" parent="1" edge="1">
          <mxGeometry width="50" height="50" relative="1" as="geometry">
            <mxPoint x="252.16" y="880" as="sourcePoint" />
            <mxPoint x="370" y="650" as="targetPoint" />
            <Array as="points">
              <mxPoint x="252" y="650" />
            </Array>
          </mxGeometry>
        </mxCell>
        <mxCell id="mVzO54f1UegZ1Pc-6k8d-64" value="" style="endArrow=classic;html=1;rounded=0;exitX=0.75;exitY=1;exitDx=0;exitDy=0;" parent="1" source="mVzO54f1UegZ1Pc-6k8d-78" target="mVzO54f1UegZ1Pc-6k8d-65" edge="1">
          <mxGeometry width="50" height="50" relative="1" as="geometry">
            <mxPoint x="332.5" y="989.66" as="sourcePoint" />
            <mxPoint x="200" y="990" as="targetPoint" />
          </mxGeometry>
        </mxCell>
        <mxCell id="mVzO54f1UegZ1Pc-6k8d-65" value="I:=I+1" style="rounded=0;whiteSpace=wrap;html=1;" parent="1" vertex="1">
          <mxGeometry x="120" y="970" width="90" height="40" as="geometry" />
        </mxCell>
        <mxCell id="mVzO54f1UegZ1Pc-6k8d-66" value="" style="endArrow=classic;html=1;rounded=0;" parent="1" edge="1">
          <mxGeometry width="50" height="50" relative="1" as="geometry">
            <mxPoint x="164.41" y="970" as="sourcePoint" />
            <mxPoint x="370" y="580" as="targetPoint" />
            <Array as="points">
              <mxPoint x="164" y="580" />
            </Array>
          </mxGeometry>
        </mxCell>
        <mxCell id="mVzO54f1UegZ1Pc-6k8d-67" value="" style="endArrow=classic;html=1;rounded=0;" parent="1" target="mVzO54f1UegZ1Pc-6k8d-68" edge="1">
          <mxGeometry width="50" height="50" relative="1" as="geometry">
            <mxPoint x="340" y="1304.5" as="sourcePoint" />
            <mxPoint x="270" y="1304.5" as="targetPoint" />
          </mxGeometry>
        </mxCell>
        <mxCell id="mVzO54f1UegZ1Pc-6k8d-68" value="J:=J+1" style="rounded=0;whiteSpace=wrap;html=1;" parent="1" vertex="1">
          <mxGeometry x="190" y="1287.5" width="90" height="35" as="geometry" />
        </mxCell>
        <mxCell id="mVzO54f1UegZ1Pc-6k8d-69" value="" style="endArrow=classic;html=1;rounded=0;" parent="1" edge="1">
          <mxGeometry width="50" height="50" relative="1" as="geometry">
            <mxPoint x="234.5" y="1287.5" as="sourcePoint" />
            <mxPoint x="370" y="1170" as="targetPoint" />
            <Array as="points">
              <mxPoint x="235" y="1170" />
            </Array>
          </mxGeometry>
        </mxCell>
        <mxCell id="mVzO54f1UegZ1Pc-6k8d-70" value="" style="endArrow=classic;html=1;rounded=0;" parent="1" target="mVzO54f1UegZ1Pc-6k8d-71" edge="1">
          <mxGeometry width="50" height="50" relative="1" as="geometry">
            <mxPoint x="336" y="1409.5" as="sourcePoint" />
            <mxPoint x="246" y="1409.5" as="targetPoint" />
          </mxGeometry>
        </mxCell>
        <mxCell id="mVzO54f1UegZ1Pc-6k8d-71" value="I:=I+1" style="rounded=0;whiteSpace=wrap;html=1;" parent="1" vertex="1">
          <mxGeometry x="120" y="1390" width="110" height="40" as="geometry" />
        </mxCell>
        <mxCell id="mVzO54f1UegZ1Pc-6k8d-72" value="" style="endArrow=classic;html=1;rounded=0;" parent="1" edge="1">
          <mxGeometry width="50" height="50" relative="1" as="geometry">
            <mxPoint x="174.5" y="1390" as="sourcePoint" />
            <mxPoint x="370" y="1100" as="targetPoint" />
            <Array as="points">
              <mxPoint x="175" y="1100" />
            </Array>
          </mxGeometry>
        </mxCell>
        <mxCell id="mVzO54f1UegZ1Pc-6k8d-73" value="+" style="text;html=1;strokeColor=none;fillColor=none;align=center;verticalAlign=middle;whiteSpace=wrap;rounded=0;" parent="1" vertex="1">
          <mxGeometry x="384" y="670" width="60" height="30" as="geometry" />
        </mxCell>
        <mxCell id="mVzO54f1UegZ1Pc-6k8d-74" value="+" style="text;html=1;strokeColor=none;fillColor=none;align=center;verticalAlign=middle;whiteSpace=wrap;rounded=0;" parent="1" vertex="1">
          <mxGeometry x="390" y="760" width="60" height="30" as="geometry" />
        </mxCell>
        <mxCell id="mVzO54f1UegZ1Pc-6k8d-75" value="-" style="text;html=1;strokeColor=none;fillColor=none;align=center;verticalAlign=middle;whiteSpace=wrap;rounded=0;" parent="1" vertex="1">
          <mxGeometry x="367.5" y="710" width="60" height="30" as="geometry" />
        </mxCell>
        <mxCell id="mVzO54f1UegZ1Pc-6k8d-76" value="-" style="text;html=1;strokeColor=none;fillColor=none;align=center;verticalAlign=middle;whiteSpace=wrap;rounded=0;" parent="1" vertex="1">
          <mxGeometry x="370" y="820" width="60" height="30" as="geometry" />
        </mxCell>
        <mxCell id="mVzO54f1UegZ1Pc-6k8d-77" value="+" style="text;html=1;strokeColor=none;fillColor=none;align=center;verticalAlign=middle;whiteSpace=wrap;rounded=0;" parent="1" vertex="1">
          <mxGeometry x="295" y="860" width="60" height="30" as="geometry" />
        </mxCell>
        <mxCell id="mVzO54f1UegZ1Pc-6k8d-78" value="+" style="text;html=1;strokeColor=none;fillColor=none;align=center;verticalAlign=middle;whiteSpace=wrap;rounded=0;" parent="1" vertex="1">
          <mxGeometry x="282.5" y="960" width="60" height="30" as="geometry" />
        </mxCell>
        <mxCell id="mVzO54f1UegZ1Pc-6k8d-79" value="-" style="text;html=1;strokeColor=none;fillColor=none;align=center;verticalAlign=middle;whiteSpace=wrap;rounded=0;" parent="1" vertex="1">
          <mxGeometry x="367.5" y="910" width="60" height="30" as="geometry" />
        </mxCell>
        <mxCell id="mVzO54f1UegZ1Pc-6k8d-80" value="-" style="text;html=1;strokeColor=none;fillColor=none;align=center;verticalAlign=middle;whiteSpace=wrap;rounded=0;" parent="1" vertex="1">
          <mxGeometry x="370" y="1000" width="60" height="30" as="geometry" />
        </mxCell>
        <mxCell id="mVzO54f1UegZ1Pc-6k8d-81" value="+" style="text;html=1;strokeColor=none;fillColor=none;align=center;verticalAlign=middle;whiteSpace=wrap;rounded=0;" parent="1" vertex="1">
          <mxGeometry x="300" y="1280" width="60" height="30" as="geometry" />
        </mxCell>
        <mxCell id="mVzO54f1UegZ1Pc-6k8d-82" value="+" style="text;html=1;strokeColor=none;fillColor=none;align=center;verticalAlign=middle;whiteSpace=wrap;rounded=0;" parent="1" vertex="1">
          <mxGeometry x="290" y="1380" width="60" height="30" as="geometry" />
        </mxCell>
        <mxCell id="mVzO54f1UegZ1Pc-6k8d-83" value="-" style="text;html=1;strokeColor=none;fillColor=none;align=center;verticalAlign=middle;whiteSpace=wrap;rounded=0;" parent="1" vertex="1">
          <mxGeometry x="360" y="1322.5" width="60" height="30" as="geometry" />
        </mxCell>
        <mxCell id="mVzO54f1UegZ1Pc-6k8d-84" value="-" style="text;html=1;strokeColor=none;fillColor=none;align=center;verticalAlign=middle;whiteSpace=wrap;rounded=0;" parent="1" vertex="1">
          <mxGeometry x="370" y="1420" width="60" height="30" as="geometry" />
        </mxCell>
        <mxCell id="mVzO54f1UegZ1Pc-6k8d-86" value="A&lt;sub&gt;ij&lt;/sub&gt;mod&lt;sub&gt;2&lt;/sub&gt;=0" style="rhombus;whiteSpace=wrap;html=1;" parent="1" vertex="1">
          <mxGeometry x="650" y="810" width="80" height="60" as="geometry" />
        </mxCell>
        <mxCell id="mVzO54f1UegZ1Pc-6k8d-87" value="" style="endArrow=classic;html=1;rounded=0;" parent="1" target="mVzO54f1UegZ1Pc-6k8d-88" edge="1">
          <mxGeometry width="50" height="50" relative="1" as="geometry">
            <mxPoint x="730" y="839.66" as="sourcePoint" />
            <mxPoint x="810" y="839.66" as="targetPoint" />
          </mxGeometry>
        </mxCell>
        <mxCell id="mVzO54f1UegZ1Pc-6k8d-88" value="" style="shape=parallelogram;perimeter=parallelogramPerimeter;whiteSpace=wrap;html=1;fixedSize=1;" parent="1" vertex="1">
          <mxGeometry x="760" y="825" width="90" height="30" as="geometry" />
        </mxCell>
      </root>
    </mxGraphModel>
  </diagram>
  <diagram id="0jr5PXc5bYmKGMp9feZj" name="Сторінка-2">
    <mxGraphModel dx="1400" dy="1865" grid="1" gridSize="10" guides="1" tooltips="1" connect="1" arrows="1" fold="1" page="1" pageScale="1" pageWidth="827" pageHeight="1169" math="0" shadow="0">
      <root>
        <mxCell id="0" />
        <mxCell id="1" parent="0" />
        <mxCell id="kiVEKP2i51o4kTJgT-uE-2" value="Start" style="ellipse;whiteSpace=wrap;html=1;" vertex="1" parent="1">
          <mxGeometry x="370" y="-1150" width="110" height="50" as="geometry" />
        </mxCell>
        <mxCell id="kiVEKP2i51o4kTJgT-uE-3" value="" style="endArrow=classic;html=1;rounded=0;" edge="1" parent="1" target="kiVEKP2i51o4kTJgT-uE-4">
          <mxGeometry width="50" height="50" relative="1" as="geometry">
            <mxPoint x="424.5" y="-1100" as="sourcePoint" />
            <mxPoint x="424.5" y="-1050" as="targetPoint" />
          </mxGeometry>
        </mxCell>
        <mxCell id="kiVEKP2i51o4kTJgT-uE-4" value="I=1" style="rounded=0;whiteSpace=wrap;html=1;" vertex="1" parent="1">
          <mxGeometry x="367.5" y="-1060" width="115" height="40" as="geometry" />
        </mxCell>
        <mxCell id="kiVEKP2i51o4kTJgT-uE-5" value="" style="endArrow=classic;html=1;rounded=0;" edge="1" parent="1">
          <mxGeometry width="50" height="50" relative="1" as="geometry">
            <mxPoint x="420" y="-1020" as="sourcePoint" />
            <mxPoint x="420.17857142857144" y="-970" as="targetPoint" />
          </mxGeometry>
        </mxCell>
        <mxCell id="kiVEKP2i51o4kTJgT-uE-6" value="J=1" style="rounded=0;whiteSpace=wrap;html=1;" vertex="1" parent="1">
          <mxGeometry x="367" y="-970" width="115.5" height="40" as="geometry" />
        </mxCell>
        <mxCell id="kiVEKP2i51o4kTJgT-uE-7" value="" style="endArrow=classic;html=1;rounded=0;" edge="1" parent="1">
          <mxGeometry width="50" height="50" relative="1" as="geometry">
            <mxPoint x="420" y="-930" as="sourcePoint" />
            <mxPoint x="420.44999999999993" y="-900" as="targetPoint" />
          </mxGeometry>
        </mxCell>
        <mxCell id="kiVEKP2i51o4kTJgT-uE-8" value="Zadaj a&lt;sub&gt;ij&lt;/sub&gt;" style="shape=parallelogram;perimeter=parallelogramPerimeter;whiteSpace=wrap;html=1;fixedSize=1;" vertex="1" parent="1">
          <mxGeometry x="367.5" y="-900" width="115.5" height="40" as="geometry" />
        </mxCell>
        <mxCell id="kiVEKP2i51o4kTJgT-uE-9" value="" style="endArrow=classic;html=1;rounded=0;" edge="1" parent="1" target="kiVEKP2i51o4kTJgT-uE-10">
          <mxGeometry width="50" height="50" relative="1" as="geometry">
            <mxPoint x="424.25" y="-860" as="sourcePoint" />
            <mxPoint x="424.25" y="-800" as="targetPoint" />
          </mxGeometry>
        </mxCell>
        <mxCell id="kiVEKP2i51o4kTJgT-uE-10" value="J&amp;lt;3" style="rhombus;whiteSpace=wrap;html=1;" vertex="1" parent="1">
          <mxGeometry x="384.75" y="-820" width="80" height="60" as="geometry" />
        </mxCell>
        <mxCell id="kiVEKP2i51o4kTJgT-uE-11" value="" style="endArrow=classic;html=1;rounded=0;" edge="1" parent="1" target="kiVEKP2i51o4kTJgT-uE-12">
          <mxGeometry width="50" height="50" relative="1" as="geometry">
            <mxPoint x="424.75" y="-760" as="sourcePoint" />
            <mxPoint x="424.75" y="-700" as="targetPoint" />
          </mxGeometry>
        </mxCell>
        <mxCell id="kiVEKP2i51o4kTJgT-uE-12" value="I&amp;lt;3" style="rhombus;whiteSpace=wrap;html=1;" vertex="1" parent="1">
          <mxGeometry x="384.75" y="-730" width="80" height="60" as="geometry" />
        </mxCell>
        <mxCell id="kiVEKP2i51o4kTJgT-uE-13" value="" style="endArrow=classic;html=1;rounded=0;" edge="1" parent="1" target="kiVEKP2i51o4kTJgT-uE-14">
          <mxGeometry width="50" height="50" relative="1" as="geometry">
            <mxPoint x="424.75" y="-670" as="sourcePoint" />
            <mxPoint x="424.75" y="-620" as="targetPoint" />
          </mxGeometry>
        </mxCell>
        <mxCell id="kiVEKP2i51o4kTJgT-uE-14" value="S=0" style="rounded=0;whiteSpace=wrap;html=1;" vertex="1" parent="1">
          <mxGeometry x="367.75" y="-640" width="115.25" height="40" as="geometry" />
        </mxCell>
        <mxCell id="kiVEKP2i51o4kTJgT-uE-15" value="" style="endArrow=classic;html=1;rounded=0;" edge="1" parent="1" target="kiVEKP2i51o4kTJgT-uE-16">
          <mxGeometry width="50" height="50" relative="1" as="geometry">
            <mxPoint x="424.25" y="-600" as="sourcePoint" />
            <mxPoint x="424.25" y="-540" as="targetPoint" />
          </mxGeometry>
        </mxCell>
        <mxCell id="kiVEKP2i51o4kTJgT-uE-16" value="I=1" style="rounded=0;whiteSpace=wrap;html=1;" vertex="1" parent="1">
          <mxGeometry x="367.75" y="-560" width="115.25" height="40" as="geometry" />
        </mxCell>
        <mxCell id="kiVEKP2i51o4kTJgT-uE-17" value="" style="endArrow=classic;html=1;rounded=0;" edge="1" parent="1">
          <mxGeometry width="50" height="50" relative="1" as="geometry">
            <mxPoint x="420" y="-520" as="sourcePoint" />
            <mxPoint x="420.3266666666666" y="-480" as="targetPoint" />
          </mxGeometry>
        </mxCell>
        <mxCell id="kiVEKP2i51o4kTJgT-uE-18" value="J=1" style="rounded=0;whiteSpace=wrap;html=1;" vertex="1" parent="1">
          <mxGeometry x="362.81" y="-480" width="125.12" height="40" as="geometry" />
        </mxCell>
        <mxCell id="kiVEKP2i51o4kTJgT-uE-19" value="" style="endArrow=classic;html=1;rounded=0;" edge="1" parent="1" target="kiVEKP2i51o4kTJgT-uE-20">
          <mxGeometry width="50" height="50" relative="1" as="geometry">
            <mxPoint x="384.75" y="-790.5" as="sourcePoint" />
            <mxPoint x="320" y="-790" as="targetPoint" />
          </mxGeometry>
        </mxCell>
        <mxCell id="kiVEKP2i51o4kTJgT-uE-20" value="J=J+1" style="rounded=0;whiteSpace=wrap;html=1;" vertex="1" parent="1">
          <mxGeometry x="230" y="-810" width="100" height="40" as="geometry" />
        </mxCell>
        <mxCell id="kiVEKP2i51o4kTJgT-uE-21" value="" style="endArrow=classic;html=1;rounded=0;" edge="1" parent="1">
          <mxGeometry width="50" height="50" relative="1" as="geometry">
            <mxPoint x="279.5" y="-810" as="sourcePoint" />
            <mxPoint x="420" y="-920" as="targetPoint" />
            <Array as="points">
              <mxPoint x="280" y="-920" />
            </Array>
          </mxGeometry>
        </mxCell>
        <mxCell id="kiVEKP2i51o4kTJgT-uE-22" value="" style="endArrow=classic;html=1;rounded=0;entryX=1;entryY=0.5;entryDx=0;entryDy=0;exitX=0;exitY=0.5;exitDx=0;exitDy=0;" edge="1" parent="1" source="kiVEKP2i51o4kTJgT-uE-12" target="kiVEKP2i51o4kTJgT-uE-23">
          <mxGeometry width="50" height="50" relative="1" as="geometry">
            <mxPoint x="384.75" y="-700.42" as="sourcePoint" />
            <mxPoint x="250" y="-700.42" as="targetPoint" />
          </mxGeometry>
        </mxCell>
        <mxCell id="kiVEKP2i51o4kTJgT-uE-23" value="I=I+1" style="rounded=0;whiteSpace=wrap;html=1;" vertex="1" parent="1">
          <mxGeometry x="140" y="-725" width="110" height="50" as="geometry" />
        </mxCell>
        <mxCell id="kiVEKP2i51o4kTJgT-uE-24" value="" style="endArrow=classic;html=1;rounded=0;" edge="1" parent="1">
          <mxGeometry width="50" height="50" relative="1" as="geometry">
            <mxPoint x="194.66" y="-725" as="sourcePoint" />
            <mxPoint x="420" y="-1000" as="targetPoint" />
            <Array as="points">
              <mxPoint x="195" y="-1000" />
            </Array>
          </mxGeometry>
        </mxCell>
        <mxCell id="kiVEKP2i51o4kTJgT-uE-25" value="" style="endArrow=classic;html=1;rounded=0;entryX=0.5;entryY=0;entryDx=0;entryDy=0;" edge="1" parent="1" target="kiVEKP2i51o4kTJgT-uE-26">
          <mxGeometry width="50" height="50" relative="1" as="geometry">
            <mxPoint x="419.71" y="-440" as="sourcePoint" />
            <mxPoint x="420.00258109952983" y="-359.88850846208845" as="targetPoint" />
          </mxGeometry>
        </mxCell>
        <mxCell id="kiVEKP2i51o4kTJgT-uE-26" value="I=J" style="rhombus;whiteSpace=wrap;html=1;" vertex="1" parent="1">
          <mxGeometry x="370" y="-360" width="98.22" height="70" as="geometry" />
        </mxCell>
        <mxCell id="kiVEKP2i51o4kTJgT-uE-27" value="" style="endArrow=classic;html=1;rounded=0;exitX=1;exitY=0.5;exitDx=0;exitDy=0;entryX=0;entryY=0.5;entryDx=0;entryDy=0;" edge="1" parent="1" source="kiVEKP2i51o4kTJgT-uE-26" target="kiVEKP2i51o4kTJgT-uE-41">
          <mxGeometry width="50" height="50" relative="1" as="geometry">
            <mxPoint x="464.75" y="-325.42" as="sourcePoint" />
            <mxPoint x="554.75" y="-325.42" as="targetPoint" />
          </mxGeometry>
        </mxCell>
        <mxCell id="kiVEKP2i51o4kTJgT-uE-28" value="" style="endArrow=classic;html=1;rounded=0;entryX=0.5;entryY=0;entryDx=0;entryDy=0;" edge="1" parent="1" target="kiVEKP2i51o4kTJgT-uE-29">
          <mxGeometry width="50" height="50" relative="1" as="geometry">
            <mxPoint x="418.74" y="-290" as="sourcePoint" />
            <mxPoint x="419.9999999999999" y="-240" as="targetPoint" />
          </mxGeometry>
        </mxCell>
        <mxCell id="kiVEKP2i51o4kTJgT-uE-29" value="a&lt;sub&gt;ij&lt;/sub&gt;=0" style="rhombus;whiteSpace=wrap;html=1;" vertex="1" parent="1">
          <mxGeometry x="379.10999999999996" y="-240" width="80" height="60" as="geometry" />
        </mxCell>
        <mxCell id="kiVEKP2i51o4kTJgT-uE-30" value="" style="endArrow=classic;html=1;rounded=0;" edge="1" parent="1">
          <mxGeometry width="50" height="50" relative="1" as="geometry">
            <mxPoint x="419.16999999999996" y="-180" as="sourcePoint" />
            <mxPoint x="418.97518539605727" y="-139.8911109529572" as="targetPoint" />
          </mxGeometry>
        </mxCell>
        <mxCell id="kiVEKP2i51o4kTJgT-uE-31" value="J&amp;lt;3" style="rhombus;whiteSpace=wrap;html=1;" vertex="1" parent="1">
          <mxGeometry x="379.11" y="-140" width="80" height="60" as="geometry" />
        </mxCell>
        <mxCell id="kiVEKP2i51o4kTJgT-uE-32" value="" style="endArrow=classic;html=1;rounded=0;" edge="1" parent="1">
          <mxGeometry width="50" height="50" relative="1" as="geometry">
            <mxPoint x="419.17" y="-80.11" as="sourcePoint" />
            <mxPoint x="418.97518539605727" y="-40.001110952957205" as="targetPoint" />
          </mxGeometry>
        </mxCell>
        <mxCell id="kiVEKP2i51o4kTJgT-uE-33" value="I&amp;lt;3" style="rhombus;whiteSpace=wrap;html=1;" vertex="1" parent="1">
          <mxGeometry x="379.11" y="-40" width="80" height="60" as="geometry" />
        </mxCell>
        <mxCell id="kiVEKP2i51o4kTJgT-uE-34" value="" style="endArrow=classic;html=1;rounded=0;" edge="1" parent="1">
          <mxGeometry width="50" height="50" relative="1" as="geometry">
            <mxPoint x="419.14" y="20" as="sourcePoint" />
            <mxPoint x="418.97846153846166" y="70" as="targetPoint" />
          </mxGeometry>
        </mxCell>
        <mxCell id="kiVEKP2i51o4kTJgT-uE-35" value="I=1" style="rounded=0;whiteSpace=wrap;html=1;" vertex="1" parent="1">
          <mxGeometry x="367.25" y="70" width="115" height="30" as="geometry" />
        </mxCell>
        <mxCell id="kiVEKP2i51o4kTJgT-uE-36" value="" style="endArrow=classic;html=1;rounded=0;" edge="1" parent="1">
          <mxGeometry width="50" height="50" relative="1" as="geometry">
            <mxPoint x="419.33" y="100" as="sourcePoint" />
            <mxPoint x="419.9990909090909" y="140" as="targetPoint" />
          </mxGeometry>
        </mxCell>
        <mxCell id="kiVEKP2i51o4kTJgT-uE-37" value="J=1" style="rounded=0;whiteSpace=wrap;html=1;" vertex="1" parent="1">
          <mxGeometry x="368.15" y="140" width="114.46" height="30" as="geometry" />
        </mxCell>
        <mxCell id="kiVEKP2i51o4kTJgT-uE-38" value="" style="endArrow=classic;html=1;rounded=0;" edge="1" parent="1">
          <mxGeometry width="50" height="50" relative="1" as="geometry">
            <mxPoint x="420" y="170" as="sourcePoint" />
            <mxPoint x="420" y="220" as="targetPoint" />
          </mxGeometry>
        </mxCell>
        <mxCell id="kiVEKP2i51o4kTJgT-uE-40" value="Vypiš&lt;em&gt; &lt;/em&gt;a&lt;sub&gt;ij&lt;/sub&gt;" style="shape=parallelogram;perimeter=parallelogramPerimeter;whiteSpace=wrap;html=1;fixedSize=1;" vertex="1" parent="1">
          <mxGeometry x="362.38" y="220" width="124.75" height="40" as="geometry" />
        </mxCell>
        <mxCell id="kiVEKP2i51o4kTJgT-uE-41" value="a&lt;sub&gt;ij&lt;/sub&gt;=0" style="rounded=0;whiteSpace=wrap;html=1;" vertex="1" parent="1">
          <mxGeometry x="560" y="-342.5" width="110" height="35" as="geometry" />
        </mxCell>
        <mxCell id="kiVEKP2i51o4kTJgT-uE-42" value="" style="endArrow=classic;html=1;rounded=0;movable=1;resizable=1;rotatable=1;deletable=1;editable=1;locked=0;connectable=1;endSize=6;" edge="1" parent="1">
          <mxGeometry width="50" height="50" relative="1" as="geometry">
            <mxPoint x="614.83" y="-307.5" as="sourcePoint" />
            <mxPoint x="420" y="-270" as="targetPoint" />
            <Array as="points">
              <mxPoint x="615" y="-270" />
            </Array>
          </mxGeometry>
        </mxCell>
        <mxCell id="kiVEKP2i51o4kTJgT-uE-43" value="" style="endArrow=classic;html=1;rounded=0;exitX=0.464;exitY=1.001;exitDx=0;exitDy=0;exitPerimeter=0;" edge="1" parent="1" source="kiVEKP2i51o4kTJgT-uE-72" target="kiVEKP2i51o4kTJgT-uE-44">
          <mxGeometry width="50" height="50" relative="1" as="geometry">
            <mxPoint x="465.38" y="-210.17" as="sourcePoint" />
            <mxPoint x="550" y="-210.17" as="targetPoint" />
          </mxGeometry>
        </mxCell>
        <mxCell id="kiVEKP2i51o4kTJgT-uE-44" value="S=S+1" style="rounded=0;whiteSpace=wrap;html=1;" vertex="1" parent="1">
          <mxGeometry x="550" y="-230" width="110" height="40" as="geometry" />
        </mxCell>
        <mxCell id="kiVEKP2i51o4kTJgT-uE-45" value="" style="endArrow=classic;html=1;rounded=0;" edge="1" parent="1">
          <mxGeometry width="50" height="50" relative="1" as="geometry">
            <mxPoint x="604.83" y="-190" as="sourcePoint" />
            <mxPoint x="420" y="-160" as="targetPoint" />
            <Array as="points">
              <mxPoint x="605" y="-160" />
            </Array>
          </mxGeometry>
        </mxCell>
        <mxCell id="kiVEKP2i51o4kTJgT-uE-46" value="" style="endArrow=classic;html=1;rounded=0;exitX=0;exitY=0.5;exitDx=0;exitDy=0;entryX=1;entryY=0.5;entryDx=0;entryDy=0;" edge="1" parent="1" source="kiVEKP2i51o4kTJgT-uE-31" target="kiVEKP2i51o4kTJgT-uE-47">
          <mxGeometry width="50" height="50" relative="1" as="geometry">
            <mxPoint x="380" y="-110" as="sourcePoint" />
            <mxPoint x="315.38" y="-110.28999999999999" as="targetPoint" />
          </mxGeometry>
        </mxCell>
        <mxCell id="kiVEKP2i51o4kTJgT-uE-47" value="J=J+1" style="rounded=0;whiteSpace=wrap;html=1;" vertex="1" parent="1">
          <mxGeometry x="200" y="-130" width="100" height="40" as="geometry" />
        </mxCell>
        <mxCell id="kiVEKP2i51o4kTJgT-uE-48" value="" style="endArrow=classic;html=1;rounded=0;" edge="1" parent="1">
          <mxGeometry width="50" height="50" relative="1" as="geometry">
            <mxPoint x="250" y="-130" as="sourcePoint" />
            <mxPoint x="420" y="-400" as="targetPoint" />
            <Array as="points">
              <mxPoint x="250" y="-400" />
            </Array>
          </mxGeometry>
        </mxCell>
        <mxCell id="kiVEKP2i51o4kTJgT-uE-49" value="" style="endArrow=classic;html=1;rounded=0;exitX=0.666;exitY=0.985;exitDx=0;exitDy=0;exitPerimeter=0;" edge="1" parent="1" source="kiVEKP2i51o4kTJgT-uE-76" target="kiVEKP2i51o4kTJgT-uE-50">
          <mxGeometry width="50" height="50" relative="1" as="geometry">
            <mxPoint x="384.75" y="-10.34" as="sourcePoint" />
            <mxPoint x="222.37" y="-10.34" as="targetPoint" />
          </mxGeometry>
        </mxCell>
        <mxCell id="kiVEKP2i51o4kTJgT-uE-50" value="I=I+1" style="rounded=0;whiteSpace=wrap;html=1;" vertex="1" parent="1">
          <mxGeometry x="130" y="-30" width="110" height="40" as="geometry" />
        </mxCell>
        <mxCell id="kiVEKP2i51o4kTJgT-uE-51" value="" style="endArrow=classic;html=1;rounded=0;" edge="1" parent="1">
          <mxGeometry width="50" height="50" relative="1" as="geometry">
            <mxPoint x="184.57999999999998" y="-30" as="sourcePoint" />
            <mxPoint x="420" y="-500" as="targetPoint" />
            <Array as="points">
              <mxPoint x="185" y="-500" />
            </Array>
          </mxGeometry>
        </mxCell>
        <mxCell id="kiVEKP2i51o4kTJgT-uE-52" value="" style="endArrow=classic;html=1;rounded=0;" edge="1" parent="1" target="kiVEKP2i51o4kTJgT-uE-53">
          <mxGeometry width="50" height="50" relative="1" as="geometry">
            <mxPoint x="424.33" y="260" as="sourcePoint" />
            <mxPoint x="424.33" y="330" as="targetPoint" />
          </mxGeometry>
        </mxCell>
        <mxCell id="kiVEKP2i51o4kTJgT-uE-53" value="J&amp;lt;3" style="rhombus;whiteSpace=wrap;html=1;" vertex="1" parent="1">
          <mxGeometry x="384.33" y="290" width="80" height="60" as="geometry" />
        </mxCell>
        <mxCell id="kiVEKP2i51o4kTJgT-uE-54" value="" style="endArrow=classic;html=1;rounded=0;" edge="1" parent="1" target="kiVEKP2i51o4kTJgT-uE-55">
          <mxGeometry width="50" height="50" relative="1" as="geometry">
            <mxPoint x="423.90999999999997" y="350" as="sourcePoint" />
            <mxPoint x="423.90999999999997" y="410" as="targetPoint" />
          </mxGeometry>
        </mxCell>
        <mxCell id="kiVEKP2i51o4kTJgT-uE-55" value="I&amp;lt;3" style="rhombus;whiteSpace=wrap;html=1;" vertex="1" parent="1">
          <mxGeometry x="384.33000000000004" y="380" width="80" height="60" as="geometry" />
        </mxCell>
        <mxCell id="kiVEKP2i51o4kTJgT-uE-56" value="" style="endArrow=classic;html=1;rounded=0;" edge="1" parent="1" target="kiVEKP2i51o4kTJgT-uE-57">
          <mxGeometry width="50" height="50" relative="1" as="geometry">
            <mxPoint x="424.96" y="440" as="sourcePoint" />
            <mxPoint x="424.96" y="500" as="targetPoint" />
          </mxGeometry>
        </mxCell>
        <mxCell id="kiVEKP2i51o4kTJgT-uE-57" value="Vypiš&lt;em&gt; &lt;/em&gt;S" style="shape=parallelogram;perimeter=parallelogramPerimeter;whiteSpace=wrap;html=1;fixedSize=1;" vertex="1" parent="1">
          <mxGeometry x="366.81" y="480" width="115.04" height="40" as="geometry" />
        </mxCell>
        <mxCell id="kiVEKP2i51o4kTJgT-uE-58" value="" style="endArrow=classic;html=1;rounded=0;" edge="1" parent="1" target="kiVEKP2i51o4kTJgT-uE-59">
          <mxGeometry width="50" height="50" relative="1" as="geometry">
            <mxPoint x="423.90999999999997" y="520" as="sourcePoint" />
            <mxPoint x="424.15999999999997" y="580" as="targetPoint" />
          </mxGeometry>
        </mxCell>
        <mxCell id="kiVEKP2i51o4kTJgT-uE-59" value="Stop" style="ellipse;whiteSpace=wrap;html=1;" vertex="1" parent="1">
          <mxGeometry x="376.41" y="545" width="95.84" height="40" as="geometry" />
        </mxCell>
        <mxCell id="kiVEKP2i51o4kTJgT-uE-60" value="" style="endArrow=classic;html=1;rounded=0;" edge="1" parent="1" target="kiVEKP2i51o4kTJgT-uE-61">
          <mxGeometry width="50" height="50" relative="1" as="geometry">
            <mxPoint x="384.33" y="319.58" as="sourcePoint" />
            <mxPoint x="317.92" y="319.58" as="targetPoint" />
          </mxGeometry>
        </mxCell>
        <mxCell id="kiVEKP2i51o4kTJgT-uE-61" value="J=J+1" style="rounded=0;whiteSpace=wrap;html=1;" vertex="1" parent="1">
          <mxGeometry x="232.07999999999998" y="299.78999999999996" width="97.92" height="40.42" as="geometry" />
        </mxCell>
        <mxCell id="kiVEKP2i51o4kTJgT-uE-62" value="" style="endArrow=classic;html=1;rounded=0;" edge="1" parent="1">
          <mxGeometry width="50" height="50" relative="1" as="geometry">
            <mxPoint x="280.62" y="299.79" as="sourcePoint" />
            <mxPoint x="420" y="200" as="targetPoint" />
            <Array as="points">
              <mxPoint x="280" y="200" />
            </Array>
          </mxGeometry>
        </mxCell>
        <mxCell id="kiVEKP2i51o4kTJgT-uE-63" value="" style="endArrow=classic;html=1;rounded=0;entryX=1;entryY=0.5;entryDx=0;entryDy=0;" edge="1" parent="1" target="kiVEKP2i51o4kTJgT-uE-64">
          <mxGeometry width="50" height="50" relative="1" as="geometry">
            <mxPoint x="384.33" y="409.58" as="sourcePoint" />
            <mxPoint x="264.33" y="409.58" as="targetPoint" />
          </mxGeometry>
        </mxCell>
        <mxCell id="kiVEKP2i51o4kTJgT-uE-64" value="I=I+1" style="rounded=0;whiteSpace=wrap;html=1;" vertex="1" parent="1">
          <mxGeometry x="150" y="390" width="110" height="40" as="geometry" />
        </mxCell>
        <mxCell id="kiVEKP2i51o4kTJgT-uE-65" value="" style="endArrow=classic;html=1;rounded=0;" edge="1" parent="1">
          <mxGeometry width="50" height="50" relative="1" as="geometry">
            <mxPoint x="204.66" y="390" as="sourcePoint" />
            <mxPoint x="420" y="120" as="targetPoint" />
            <Array as="points">
              <mxPoint x="205" y="120" />
            </Array>
          </mxGeometry>
        </mxCell>
        <mxCell id="kiVEKP2i51o4kTJgT-uE-66" value="+" style="text;html=1;strokeColor=none;fillColor=none;align=center;verticalAlign=middle;whiteSpace=wrap;rounded=0;" vertex="1" parent="1">
          <mxGeometry x="350" y="-820" width="60" height="30" as="geometry" />
        </mxCell>
        <mxCell id="kiVEKP2i51o4kTJgT-uE-67" value="-" style="text;html=1;strokeColor=none;fillColor=none;align=center;verticalAlign=middle;whiteSpace=wrap;rounded=0;" vertex="1" parent="1">
          <mxGeometry x="412.25" y="-780" width="60" height="30" as="geometry" />
        </mxCell>
        <mxCell id="kiVEKP2i51o4kTJgT-uE-68" value="+" style="text;html=1;strokeColor=none;fillColor=none;align=center;verticalAlign=middle;whiteSpace=wrap;rounded=0;" vertex="1" parent="1">
          <mxGeometry x="340" y="-725" width="60" height="30" as="geometry" />
        </mxCell>
        <mxCell id="kiVEKP2i51o4kTJgT-uE-69" value="-" style="text;html=1;strokeColor=none;fillColor=none;align=center;verticalAlign=middle;whiteSpace=wrap;rounded=0;" vertex="1" parent="1">
          <mxGeometry x="410" y="-690" width="60" height="30" as="geometry" />
        </mxCell>
        <mxCell id="kiVEKP2i51o4kTJgT-uE-70" value="+" style="text;html=1;strokeColor=none;fillColor=none;align=center;verticalAlign=middle;whiteSpace=wrap;rounded=0;" vertex="1" parent="1">
          <mxGeometry x="440" y="-350" width="60" height="30" as="geometry" />
        </mxCell>
        <mxCell id="kiVEKP2i51o4kTJgT-uE-71" value="-" style="text;html=1;strokeColor=none;fillColor=none;align=center;verticalAlign=middle;whiteSpace=wrap;rounded=0;" vertex="1" parent="1">
          <mxGeometry x="306.81" y="-290" width="60" height="30" as="geometry" />
        </mxCell>
        <mxCell id="kiVEKP2i51o4kTJgT-uE-72" value="+" style="text;html=1;strokeColor=none;fillColor=none;align=center;verticalAlign=middle;whiteSpace=wrap;rounded=0;" vertex="1" parent="1">
          <mxGeometry x="430" y="-240" width="60" height="30" as="geometry" />
        </mxCell>
        <mxCell id="kiVEKP2i51o4kTJgT-uE-73" value="-" style="text;html=1;strokeColor=none;fillColor=none;align=center;verticalAlign=middle;whiteSpace=wrap;rounded=0;" vertex="1" parent="1">
          <mxGeometry x="414" y="-200" width="60" height="30" as="geometry" />
        </mxCell>
        <mxCell id="kiVEKP2i51o4kTJgT-uE-74" value="+" style="text;html=1;strokeColor=none;fillColor=none;align=center;verticalAlign=middle;whiteSpace=wrap;rounded=0;" vertex="1" parent="1">
          <mxGeometry x="350" y="-140" width="60" height="30" as="geometry" />
        </mxCell>
        <mxCell id="kiVEKP2i51o4kTJgT-uE-75" value="-" style="text;html=1;strokeColor=none;fillColor=none;align=center;verticalAlign=middle;whiteSpace=wrap;rounded=0;" vertex="1" parent="1">
          <mxGeometry x="412.25" y="-90" width="60" height="30" as="geometry" />
        </mxCell>
        <mxCell id="kiVEKP2i51o4kTJgT-uE-76" value="+" style="text;html=1;strokeColor=none;fillColor=none;align=center;verticalAlign=middle;whiteSpace=wrap;rounded=0;" vertex="1" parent="1">
          <mxGeometry x="340" y="-40" width="60" height="30" as="geometry" />
        </mxCell>
        <mxCell id="kiVEKP2i51o4kTJgT-uE-77" value="-" style="text;html=1;strokeColor=none;fillColor=none;align=center;verticalAlign=middle;whiteSpace=wrap;rounded=0;" vertex="1" parent="1">
          <mxGeometry x="414" width="60" height="30" as="geometry" />
        </mxCell>
        <mxCell id="kiVEKP2i51o4kTJgT-uE-78" value="+" style="text;html=1;strokeColor=none;fillColor=none;align=center;verticalAlign=middle;whiteSpace=wrap;rounded=0;" vertex="1" parent="1">
          <mxGeometry x="360" y="380" width="60" height="30" as="geometry" />
        </mxCell>
        <mxCell id="kiVEKP2i51o4kTJgT-uE-79" value="-" style="text;html=1;strokeColor=none;fillColor=none;align=center;verticalAlign=middle;whiteSpace=wrap;rounded=0;" vertex="1" parent="1">
          <mxGeometry x="412.25" y="430" width="60" height="30" as="geometry" />
        </mxCell>
        <mxCell id="kiVEKP2i51o4kTJgT-uE-80" value="+" style="text;html=1;strokeColor=none;fillColor=none;align=center;verticalAlign=middle;whiteSpace=wrap;rounded=0;" vertex="1" parent="1">
          <mxGeometry x="350" y="290" width="60" height="30" as="geometry" />
        </mxCell>
        <mxCell id="kiVEKP2i51o4kTJgT-uE-81" value="-" style="text;html=1;strokeColor=none;fillColor=none;align=center;verticalAlign=middle;whiteSpace=wrap;rounded=0;" vertex="1" parent="1">
          <mxGeometry x="420" y="330" width="60" height="30" as="geometry" />
        </mxCell>
      </root>
    </mxGraphModel>
  </diagram>
  <diagram id="uHp-uQR4aKvF8Muxk5ka" name="Сторінка-3">
    <mxGraphModel dx="1750" dy="870" grid="1" gridSize="10" guides="1" tooltips="1" connect="1" arrows="1" fold="1" page="1" pageScale="1" pageWidth="827" pageHeight="1169" math="0" shadow="0">
      <root>
        <mxCell id="0" />
        <mxCell id="1" parent="0" />
        <mxCell id="WACpAJPcizcF3KbS8hGz-1" value="Start" style="ellipse;whiteSpace=wrap;html=1;" vertex="1" parent="1">
          <mxGeometry x="354" width="120" height="60" as="geometry" />
        </mxCell>
        <mxCell id="WACpAJPcizcF3KbS8hGz-2" value="" style="endArrow=classic;html=1;rounded=0;" edge="1" parent="1" target="WACpAJPcizcF3KbS8hGz-3">
          <mxGeometry width="50" height="50" relative="1" as="geometry">
            <mxPoint x="413" y="60" as="sourcePoint" />
            <mxPoint x="413" y="120" as="targetPoint" />
          </mxGeometry>
        </mxCell>
        <mxCell id="WACpAJPcizcF3KbS8hGz-3" value="Vstup M, i, k, n" style="shape=parallelogram;perimeter=parallelogramPerimeter;whiteSpace=wrap;html=1;fixedSize=1;" vertex="1" parent="1">
          <mxGeometry x="354" y="110" width="116" height="50" as="geometry" />
        </mxCell>
        <mxCell id="WACpAJPcizcF3KbS8hGz-4" value="" style="endArrow=classic;html=1;rounded=0;" edge="1" parent="1" target="WACpAJPcizcF3KbS8hGz-5">
          <mxGeometry width="50" height="50" relative="1" as="geometry">
            <mxPoint x="411.5" y="160" as="sourcePoint" />
            <mxPoint x="411.5" y="220" as="targetPoint" />
          </mxGeometry>
        </mxCell>
        <mxCell id="WACpAJPcizcF3KbS8hGz-5" value="M( matice 3x3)" style="shape=parallelogram;perimeter=parallelogramPerimeter;whiteSpace=wrap;html=1;fixedSize=1;" vertex="1" parent="1">
          <mxGeometry x="352" y="210" width="118" height="50" as="geometry" />
        </mxCell>
        <mxCell id="WACpAJPcizcF3KbS8hGz-6" value="" style="endArrow=classic;html=1;rounded=0;" edge="1" parent="1" target="WACpAJPcizcF3KbS8hGz-7">
          <mxGeometry width="50" height="50" relative="1" as="geometry">
            <mxPoint x="410.5" y="260" as="sourcePoint" />
            <mxPoint x="410.5" y="320" as="targetPoint" />
          </mxGeometry>
        </mxCell>
        <mxCell id="WACpAJPcizcF3KbS8hGz-7" value="i=k=n=0" style="rounded=0;whiteSpace=wrap;html=1;" vertex="1" parent="1">
          <mxGeometry x="350" y="310" width="120" height="40" as="geometry" />
        </mxCell>
        <mxCell id="WACpAJPcizcF3KbS8hGz-8" value="" style="endArrow=classic;html=1;rounded=0;" edge="1" parent="1" target="WACpAJPcizcF3KbS8hGz-9">
          <mxGeometry width="50" height="50" relative="1" as="geometry">
            <mxPoint x="410.5" y="350" as="sourcePoint" />
            <mxPoint x="410.5" y="430" as="targetPoint" />
          </mxGeometry>
        </mxCell>
        <mxCell id="WACpAJPcizcF3KbS8hGz-9" value="i&amp;lt;3" style="rhombus;whiteSpace=wrap;html=1;" vertex="1" parent="1">
          <mxGeometry x="360.25" y="400" width="99.5" height="60" as="geometry" />
        </mxCell>
        <mxCell id="WACpAJPcizcF3KbS8hGz-10" value="" style="endArrow=classic;html=1;rounded=0;" edge="1" parent="1">
          <mxGeometry width="50" height="50" relative="1" as="geometry">
            <mxPoint x="409.5" y="460" as="sourcePoint" />
            <mxPoint x="409.5" y="520" as="targetPoint" />
          </mxGeometry>
        </mxCell>
        <mxCell id="WACpAJPcizcF3KbS8hGz-11" value="k&amp;lt;3" style="rhombus;whiteSpace=wrap;html=1;" vertex="1" parent="1">
          <mxGeometry x="365" y="520" width="90" height="60" as="geometry" />
        </mxCell>
        <mxCell id="WACpAJPcizcF3KbS8hGz-12" value="+" style="text;html=1;strokeColor=none;fillColor=none;align=center;verticalAlign=middle;whiteSpace=wrap;rounded=0;" vertex="1" parent="1">
          <mxGeometry x="399.75" y="500" width="60" height="30" as="geometry" />
        </mxCell>
        <mxCell id="WACpAJPcizcF3KbS8hGz-13" value="" style="endArrow=none;html=1;rounded=0;" edge="1" parent="1" target="WACpAJPcizcF3KbS8hGz-14">
          <mxGeometry width="50" height="50" relative="1" as="geometry">
            <mxPoint x="455" y="549.5" as="sourcePoint" />
            <mxPoint x="510" y="550" as="targetPoint" />
          </mxGeometry>
        </mxCell>
        <mxCell id="WACpAJPcizcF3KbS8hGz-14" value="-" style="text;html=1;strokeColor=none;fillColor=none;align=center;verticalAlign=middle;whiteSpace=wrap;rounded=0;" vertex="1" parent="1">
          <mxGeometry x="500" y="535" width="34" height="30" as="geometry" />
        </mxCell>
        <mxCell id="WACpAJPcizcF3KbS8hGz-15" value="" style="endArrow=classic;html=1;rounded=0;" edge="1" parent="1">
          <mxGeometry width="50" height="50" relative="1" as="geometry">
            <mxPoint x="534" y="549.5" as="sourcePoint" />
            <mxPoint x="600" y="550" as="targetPoint" />
          </mxGeometry>
        </mxCell>
        <mxCell id="WACpAJPcizcF3KbS8hGz-16" value="i++, k=0" style="rounded=0;whiteSpace=wrap;html=1;" vertex="1" parent="1">
          <mxGeometry x="600" y="530" width="100" height="40" as="geometry" />
        </mxCell>
        <mxCell id="WACpAJPcizcF3KbS8hGz-17" value="" style="endArrow=classic;html=1;rounded=0;" edge="1" parent="1">
          <mxGeometry width="50" height="50" relative="1" as="geometry">
            <mxPoint x="649.66" y="530" as="sourcePoint" />
            <mxPoint x="410" y="370" as="targetPoint" />
            <Array as="points">
              <mxPoint x="650" y="370" />
            </Array>
          </mxGeometry>
        </mxCell>
        <mxCell id="WACpAJPcizcF3KbS8hGz-18" value="" style="endArrow=classic;html=1;rounded=0;" edge="1" parent="1" target="WACpAJPcizcF3KbS8hGz-19">
          <mxGeometry width="50" height="50" relative="1" as="geometry">
            <mxPoint x="409.71000000000004" y="580" as="sourcePoint" />
            <mxPoint x="409.71000000000004" y="630" as="targetPoint" />
          </mxGeometry>
        </mxCell>
        <mxCell id="WACpAJPcizcF3KbS8hGz-19" value="i=k" style="rhombus;whiteSpace=wrap;html=1;" vertex="1" parent="1">
          <mxGeometry x="370" y="610" width="80" height="60" as="geometry" />
        </mxCell>
        <mxCell id="WACpAJPcizcF3KbS8hGz-20" value="+" style="text;html=1;strokeColor=none;fillColor=none;align=center;verticalAlign=middle;whiteSpace=wrap;rounded=0;" vertex="1" parent="1">
          <mxGeometry x="410" y="600" width="60" height="30" as="geometry" />
        </mxCell>
        <mxCell id="WACpAJPcizcF3KbS8hGz-21" value="" style="endArrow=none;html=1;rounded=0;" edge="1" parent="1" target="WACpAJPcizcF3KbS8hGz-22">
          <mxGeometry width="50" height="50" relative="1" as="geometry">
            <mxPoint x="450" y="639.71" as="sourcePoint" />
            <mxPoint x="510" y="639.71" as="targetPoint" />
          </mxGeometry>
        </mxCell>
        <mxCell id="WACpAJPcizcF3KbS8hGz-22" value="+" style="text;html=1;strokeColor=none;fillColor=none;align=center;verticalAlign=middle;whiteSpace=wrap;rounded=0;" vertex="1" parent="1">
          <mxGeometry x="510" y="625" width="40" height="30" as="geometry" />
        </mxCell>
        <mxCell id="WACpAJPcizcF3KbS8hGz-23" value="" style="endArrow=classic;html=1;rounded=0;entryX=0.568;entryY=0;entryDx=0;entryDy=0;entryPerimeter=0;" edge="1" parent="1" target="WACpAJPcizcF3KbS8hGz-25">
          <mxGeometry width="50" height="50" relative="1" as="geometry">
            <mxPoint x="550" y="639.71" as="sourcePoint" />
            <mxPoint x="810" y="670" as="targetPoint" />
            <Array as="points">
              <mxPoint x="680" y="640" />
            </Array>
          </mxGeometry>
        </mxCell>
        <mxCell id="WACpAJPcizcF3KbS8hGz-25" value="M[i][k]=0" style="rounded=0;whiteSpace=wrap;html=1;" vertex="1" parent="1">
          <mxGeometry x="630" y="670" width="90" height="40" as="geometry" />
        </mxCell>
        <mxCell id="WACpAJPcizcF3KbS8hGz-26" value="" style="endArrow=classic;html=1;rounded=0;" edge="1" parent="1">
          <mxGeometry width="50" height="50" relative="1" as="geometry">
            <mxPoint x="370" y="640" as="sourcePoint" />
            <mxPoint x="280" y="740" as="targetPoint" />
            <Array as="points">
              <mxPoint x="280" y="640" />
            </Array>
          </mxGeometry>
        </mxCell>
        <mxCell id="WACpAJPcizcF3KbS8hGz-27" value="" style="endArrow=none;html=1;rounded=0;" edge="1" parent="1">
          <mxGeometry width="50" height="50" relative="1" as="geometry">
            <mxPoint x="280" y="740" as="sourcePoint" />
            <mxPoint x="680" y="710" as="targetPoint" />
            <Array as="points">
              <mxPoint x="680" y="740" />
            </Array>
          </mxGeometry>
        </mxCell>
        <mxCell id="WACpAJPcizcF3KbS8hGz-28" value="-" style="text;html=1;strokeColor=none;fillColor=none;align=center;verticalAlign=middle;whiteSpace=wrap;rounded=0;" vertex="1" parent="1">
          <mxGeometry x="260" y="675" width="60" height="30" as="geometry" />
        </mxCell>
        <mxCell id="WACpAJPcizcF3KbS8hGz-29" value="" style="endArrow=classic;html=1;rounded=0;" edge="1" parent="1">
          <mxGeometry width="50" height="50" relative="1" as="geometry">
            <mxPoint x="410" y="740" as="sourcePoint" />
            <mxPoint x="410" y="790" as="targetPoint" />
          </mxGeometry>
        </mxCell>
        <mxCell id="WACpAJPcizcF3KbS8hGz-30" value="M[i][k]=0" style="rhombus;whiteSpace=wrap;html=1;" vertex="1" parent="1">
          <mxGeometry x="370" y="790" width="80" height="50" as="geometry" />
        </mxCell>
        <mxCell id="WACpAJPcizcF3KbS8hGz-31" value="" style="endArrow=none;html=1;rounded=0;entryX=0;entryY=0.5;entryDx=0;entryDy=0;" edge="1" parent="1" target="WACpAJPcizcF3KbS8hGz-32">
          <mxGeometry width="50" height="50" relative="1" as="geometry">
            <mxPoint x="450" y="814.71" as="sourcePoint" />
            <mxPoint x="520" y="814.71" as="targetPoint" />
          </mxGeometry>
        </mxCell>
        <mxCell id="WACpAJPcizcF3KbS8hGz-32" value="+" style="text;html=1;strokeColor=none;fillColor=none;align=center;verticalAlign=middle;whiteSpace=wrap;rounded=0;" vertex="1" parent="1">
          <mxGeometry x="520" y="800" width="40" height="30" as="geometry" />
        </mxCell>
        <mxCell id="WACpAJPcizcF3KbS8hGz-33" value="" style="endArrow=none;html=1;rounded=0;" edge="1" parent="1">
          <mxGeometry width="50" height="50" relative="1" as="geometry">
            <mxPoint x="539.76" y="860" as="sourcePoint" />
            <mxPoint x="539.76" y="830" as="targetPoint" />
          </mxGeometry>
        </mxCell>
        <mxCell id="WACpAJPcizcF3KbS8hGz-35" value="n++ (n+=1, n=n+1)" style="rounded=0;whiteSpace=wrap;html=1;" vertex="1" parent="1">
          <mxGeometry x="485" y="860" width="110" height="40" as="geometry" />
        </mxCell>
        <mxCell id="WACpAJPcizcF3KbS8hGz-36" value="" style="endArrow=classic;html=1;rounded=0;" edge="1" parent="1">
          <mxGeometry width="50" height="50" relative="1" as="geometry">
            <mxPoint x="370" y="814.76" as="sourcePoint" />
            <mxPoint x="400" y="950" as="targetPoint" />
            <Array as="points">
              <mxPoint x="200" y="815" />
              <mxPoint x="200" y="930" />
              <mxPoint x="400" y="930" />
            </Array>
          </mxGeometry>
        </mxCell>
        <mxCell id="WACpAJPcizcF3KbS8hGz-38" value="M[i][k]%2=0 &amp;amp;&amp;amp; M[i][k]=0" style="rhombus;whiteSpace=wrap;html=1;" vertex="1" parent="1">
          <mxGeometry x="320" y="950" width="160" height="70" as="geometry" />
        </mxCell>
        <mxCell id="WACpAJPcizcF3KbS8hGz-41" value="" style="endArrow=none;html=1;rounded=0;" edge="1" parent="1" target="WACpAJPcizcF3KbS8hGz-42">
          <mxGeometry width="50" height="50" relative="1" as="geometry">
            <mxPoint x="479.5" y="984.76" as="sourcePoint" />
            <mxPoint x="530" y="985" as="targetPoint" />
          </mxGeometry>
        </mxCell>
        <mxCell id="WACpAJPcizcF3KbS8hGz-42" value="+" style="text;html=1;strokeColor=none;fillColor=none;align=center;verticalAlign=middle;whiteSpace=wrap;rounded=0;" vertex="1" parent="1">
          <mxGeometry x="510" y="975" width="50" height="20" as="geometry" />
        </mxCell>
        <mxCell id="WACpAJPcizcF3KbS8hGz-43" value="" style="endArrow=classic;html=1;rounded=0;" edge="1" parent="1" target="WACpAJPcizcF3KbS8hGz-44">
          <mxGeometry width="50" height="50" relative="1" as="geometry">
            <mxPoint x="560" y="990" as="sourcePoint" />
            <mxPoint x="660" y="1020" as="targetPoint" />
            <Array as="points">
              <mxPoint x="660" y="990" />
            </Array>
          </mxGeometry>
        </mxCell>
        <mxCell id="WACpAJPcizcF3KbS8hGz-44" value="Vystup M[i][k]" style="shape=parallelogram;perimeter=parallelogramPerimeter;whiteSpace=wrap;html=1;fixedSize=1;" vertex="1" parent="1">
          <mxGeometry x="600" y="1020" width="120" height="40" as="geometry" />
        </mxCell>
        <mxCell id="WACpAJPcizcF3KbS8hGz-45" value="" style="endArrow=classic;html=1;rounded=0;" edge="1" parent="1" target="WACpAJPcizcF3KbS8hGz-46">
          <mxGeometry width="50" height="50" relative="1" as="geometry">
            <mxPoint x="660" y="1060" as="sourcePoint" />
            <mxPoint x="450" y="1120" as="targetPoint" />
            <Array as="points">
              <mxPoint x="660" y="1120" />
            </Array>
          </mxGeometry>
        </mxCell>
        <mxCell id="WACpAJPcizcF3KbS8hGz-46" value="k++" style="rounded=0;whiteSpace=wrap;html=1;" vertex="1" parent="1">
          <mxGeometry x="352" y="1100" width="99.75" height="40" as="geometry" />
        </mxCell>
        <mxCell id="WACpAJPcizcF3KbS8hGz-47" value="" style="endArrow=none;html=1;rounded=0;" edge="1" parent="1" source="WACpAJPcizcF3KbS8hGz-49">
          <mxGeometry width="50" height="50" relative="1" as="geometry">
            <mxPoint x="240" y="1030" as="sourcePoint" />
            <mxPoint x="320" y="984.76" as="targetPoint" />
            <Array as="points">
              <mxPoint x="240" y="985" />
            </Array>
          </mxGeometry>
        </mxCell>
        <mxCell id="WACpAJPcizcF3KbS8hGz-49" value="-" style="text;html=1;strokeColor=none;fillColor=none;align=center;verticalAlign=middle;whiteSpace=wrap;rounded=0;" vertex="1" parent="1">
          <mxGeometry x="210" y="1030" width="60" height="10" as="geometry" />
        </mxCell>
        <mxCell id="WACpAJPcizcF3KbS8hGz-50" value="" style="endArrow=classic;html=1;rounded=0;" edge="1" parent="1" target="WACpAJPcizcF3KbS8hGz-46">
          <mxGeometry width="50" height="50" relative="1" as="geometry">
            <mxPoint x="239.76" y="1040" as="sourcePoint" />
            <mxPoint x="300" y="1140" as="targetPoint" />
            <Array as="points">
              <mxPoint x="240" y="1120" />
            </Array>
          </mxGeometry>
        </mxCell>
        <mxCell id="WACpAJPcizcF3KbS8hGz-51" value="" style="endArrow=classic;html=1;rounded=0;" edge="1" parent="1">
          <mxGeometry width="50" height="50" relative="1" as="geometry">
            <mxPoint x="404" y="1140" as="sourcePoint" />
            <mxPoint x="410" y="480" as="targetPoint" />
            <Array as="points">
              <mxPoint x="404" y="1190" />
              <mxPoint x="120" y="1190" />
              <mxPoint x="120" y="480" />
            </Array>
          </mxGeometry>
        </mxCell>
        <mxCell id="WACpAJPcizcF3KbS8hGz-52" value="" style="endArrow=none;html=1;rounded=0;" edge="1" parent="1" source="WACpAJPcizcF3KbS8hGz-54">
          <mxGeometry width="50" height="50" relative="1" as="geometry">
            <mxPoint x="310.25" y="429.40999999999997" as="sourcePoint" />
            <mxPoint x="360.25" y="429.40999999999997" as="targetPoint" />
          </mxGeometry>
        </mxCell>
        <mxCell id="WACpAJPcizcF3KbS8hGz-54" value="-" style="text;html=1;strokeColor=none;fillColor=none;align=center;verticalAlign=middle;whiteSpace=wrap;rounded=0;" vertex="1" parent="1">
          <mxGeometry x="270" y="415" width="40" height="30" as="geometry" />
        </mxCell>
        <mxCell id="WACpAJPcizcF3KbS8hGz-55" value="" style="endArrow=classic;html=1;rounded=0;" edge="1" parent="1" source="WACpAJPcizcF3KbS8hGz-54" target="WACpAJPcizcF3KbS8hGz-56">
          <mxGeometry width="50" height="50" relative="1" as="geometry">
            <mxPoint x="270" y="429.76" as="sourcePoint" />
            <mxPoint x="370" y="1240" as="targetPoint" />
            <Array as="points">
              <mxPoint x="80" y="430" />
              <mxPoint x="80" y="1240" />
            </Array>
          </mxGeometry>
        </mxCell>
        <mxCell id="WACpAJPcizcF3KbS8hGz-56" value="Vystup M,n" style="shape=parallelogram;perimeter=parallelogramPerimeter;whiteSpace=wrap;html=1;fixedSize=1;" vertex="1" parent="1">
          <mxGeometry x="339.75" y="1220" width="120" height="40" as="geometry" />
        </mxCell>
        <mxCell id="WACpAJPcizcF3KbS8hGz-57" value="" style="endArrow=classic;html=1;rounded=0;" edge="1" parent="1" target="WACpAJPcizcF3KbS8hGz-58">
          <mxGeometry width="50" height="50" relative="1" as="geometry">
            <mxPoint x="401.59000000000003" y="1260" as="sourcePoint" />
            <mxPoint x="401.59000000000003" y="1310" as="targetPoint" />
          </mxGeometry>
        </mxCell>
        <mxCell id="WACpAJPcizcF3KbS8hGz-58" value="Stop" style="ellipse;whiteSpace=wrap;html=1;" vertex="1" parent="1">
          <mxGeometry x="341.88" y="1290" width="120" height="50" as="geometry" />
        </mxCell>
        <mxCell id="WACpAJPcizcF3KbS8hGz-59" value="-" style="text;html=1;strokeColor=none;fillColor=none;align=center;verticalAlign=middle;whiteSpace=wrap;rounded=0;" vertex="1" parent="1">
          <mxGeometry x="180" y="840" width="60" height="30" as="geometry" />
        </mxCell>
        <mxCell id="WACpAJPcizcF3KbS8hGz-61" value="" style="endArrow=none;html=1;entryX=0.5;entryY=1;entryDx=0;entryDy=0;curved=1;" edge="1" parent="1" target="WACpAJPcizcF3KbS8hGz-35">
          <mxGeometry width="50" height="50" relative="1" as="geometry">
            <mxPoint x="400" y="940" as="sourcePoint" />
            <mxPoint x="550" y="910" as="targetPoint" />
            <Array as="points">
              <mxPoint x="400" y="930" />
              <mxPoint x="540" y="930" />
            </Array>
          </mxGeometry>
        </mxCell>
      </root>
    </mxGraphModel>
  </diagram>
</mxfile>
